<svg xmlns="http://www.w3.org/2000/svg" xmlns:xlink="http://www.w3.org/1999/xlink" width="198" height="44" viewBox="0 0 198 44">
  <defs>
    <style>
      .cls-1 {
        fill: #ee8876;
      }

      .cls-1, .cls-2, .cls-3 {
        fill-rule: evenodd;
      }

      .cls-2 {
        fill: #7d71ba;
      }

      .cls-3 {
        fill: url(#linear-gradient);
      }
    </style>
    <linearGradient id="linear-gradient" x1="75.844" y1="22" x2="122.188" y2="22" gradientUnits="userSpaceOnUse">
      <stop offset="0" stop-color="#e99485" stop-opacity="0.996"/>
      <stop offset="0.989" stop-color="#6857be"/>
      <stop offset="1" stop-color="#6857be"/>
    </linearGradient>
  </defs>
  <path id="SWU" class="cls-1" d="M6.563,18.943C6.595,17.675,7.5,17.087,9,17.087a6.423,6.423,0,0,1,3.718.928,2.9,2.9,0,0,0,1.437.4,2.591,2.591,0,0,0,2.687-1.762,3.4,3.4,0,0,0-1.968-3.8,11.416,11.416,0,0,0-5.936-1.237C4.658,11.614,1.6,13.531.5,16.84c-1.062,3.247-.031,7.483,4.686,9.431,0.375,0.155,1,.4,1.5.557,2.593,0.8,4.655,1.7,4.624,2.876-0.031,1.361-1.062,1.948-2.781,1.948a6.8,6.8,0,0,1-3.812-.8A3.83,3.83,0,0,0,2.5,30.074,2.883,2.883,0,0,0,.284,31.188,3.024,3.024,0,0,0,1.1,35.238c1.687,1.33,4.468,1.886,7.248,1.886,5.686,0,9.185-2.566,9.467-6.957,0.25-3.989-2.156-6.679-5.811-7.978l-1.531-.526C7.969,20.829,6.532,20.087,6.563,18.943Zm30.711-4.236a3.259,3.259,0,0,0-3.312-2.35,3.259,3.259,0,0,0-3.312,2.35L27.776,27.415,24.871,13.871c-0.375-1.886-2.093-2.474-3.687-2.226a2.817,2.817,0,0,0-2.406,3.463L23.933,36.6h6.4l3.624-15.461L37.618,36.6h6.874l4.936-21.521a2.783,2.783,0,0,0-2.343-3.432c-1.593-.247-3.28.34-3.655,2.226L40.3,28.219ZM64.922,28.281a3.628,3.628,0,0,1-7.248,0V14.645a2.92,2.92,0,0,0-3.218-3.061,2.934,2.934,0,0,0-3.218,3.061V28.034c0,6.9,5.561,9.091,10.06,9.091s10.06-2.2,10.06-9.091V14.645a3.222,3.222,0,0,0-6.436,0V28.281Z"/>
  <path id="LIFE" class="cls-2" d="M142.514,36.876a2.531,2.531,0,0,0,2.53-2.752,2.44,2.44,0,0,0-2.53-2.659h-6.936c-0.719,0-.906-0.155-0.906-0.9V15.015a3.251,3.251,0,0,0-6.5,0V31.991c0,3.556,1.125,4.886,4.874,4.886h9.467Zm5.372,0h6.5V14.953a3.254,3.254,0,0,0-6.5,0V36.876Zm17.152,0V27.6h8.029A2.441,2.441,0,0,0,175.6,24.94a2.532,2.532,0,0,0-2.531-2.752h-8.029v-3.9c0-.742.187-0.9,0.906-0.9h7.935a2.44,2.44,0,0,0,2.531-2.659,2.531,2.531,0,0,0-2.531-2.752h-10.4c-3.75,0-4.874,1.33-4.874,4.886V36.876h6.436Zm21.025-18.584c0-.742.187-0.9,0.906-0.9h7.9a2.44,2.44,0,0,0,2.531-2.659,2.532,2.532,0,0,0-2.531-2.752H184.532c-3.749,0-4.874,1.33-4.874,4.886V31.991c0,3.556,1.125,4.886,4.874,4.886h10.654a2.531,2.531,0,0,0,2.53-2.752,2.44,2.44,0,0,0-2.53-2.659h-8.217c-0.719,0-.906-0.155-0.906-0.9V26.95h8.529a2.432,2.432,0,0,0,2.531-2.628,2.523,2.523,0,0,0-2.531-2.721h-8.529V18.292Z"/>
  <path class="cls-3" d="M112.737,39.135a2.421,2.421,0,0,0,1.466.875h0l0.024,0.007c0.03,0.009.062,0.017,0.093,0.026l0.061,0.015q0.228,0.058.483,0.1a7.13,7.13,0,0,0,5.558-1.257c0.106-.068.2-0.145,0.305-0.221h0.006l0.034-.029a2.778,2.778,0,0,0,1.25-2.051V36.592c0-.047,0-0.091-0.009-0.135a1.854,1.854,0,0,0-1.241-1.467,1.7,1.7,0,0,1-.84-2.5,29.681,29.681,0,0,0,1.289-3.175l-0.028-.039a16.842,16.842,0,0,0-2.812-16.487s-0.12-.165-0.35-0.449a28.082,28.082,0,0,0-8-6.685l-0.006,0,0.006-.021a22.709,22.709,0,0,0-3.84-1.672C101.517,2.438,95.7,2.325,89.065,5.927A17.2,17.2,0,0,0,86.34,7.9c-0.063.061-.128,0.121-0.189,0.181a14.2,14.2,0,0,0-9.166,11.6A21,21,0,0,0,78.325,30.7s1.169,3.4-1.241,4.616c0,0-2.076.969-.871,2.323,0,0,1.828,2.475,5.665.984l0.994-.559A20.755,20.755,0,0,0,97.853,44C107.725,44,112.737,39.135,112.737,39.135ZM93.116,41.9c-0.574-.1-1.135-0.251-1.7-0.4l-0.83-.26c-0.276-.088-0.544-0.2-0.817-0.294s-0.532-.224-0.8-0.335c-0.257-.13-0.522-0.246-0.771-0.387a8.089,8.089,0,0,1-1.4-.924l-0.035-.03a12.4,12.4,0,0,1-3.418-3.653,8.99,8.99,0,0,1-1.227-4.8A11.337,11.337,0,0,1,82.51,28.2a23.4,23.4,0,0,1,6.926-9.762c0.113,3.916,1.8,7.877,8.049,8.158,0,0,8.332.628,9.546-6.42,2.241,3.02,5.216,7.479,5.759,12.32a19.67,19.67,0,0,1-.521,5.023s-0.008.048-.016,0.125l-0.885.616c-0.48.322-.989,0.654-1.467,0.956-0.238.155-.492,0.307-0.749,0.459-0.224.13-.5,0.264-0.749,0.4-0.513.255-1.036,0.5-1.575,0.7-0.266.111-.538,0.211-0.811,0.3s-0.546.191-.824,0.271-0.554.169-.835,0.241-0.56.148-.845,0.209a23.32,23.32,0,0,1-3.436.533c-0.569.052-1.152,0.038-1.74,0.043s-1.167-.023-1.752-0.048-1.162-.1-1.744-0.148l-0.864-.128C93.687,42.009,93.4,41.957,93.116,41.9Zm1.114-6.64a2.848,2.848,0,0,1-.543-0.421,1.6,1.6,0,0,1-.172-0.2s0.358,0.125.873,0.247c0.127,0.035.269,0.055,0.412,0.09s0.3,0.05.458,0.072a7.2,7.2,0,0,0,.989.057c0.168,0.009.336-.02,0.5-0.021l0.488-.053c0.156-.029.309-0.058,0.458-0.081s0.282-.069.413-0.094,0.254-.05.357-0.086,0.2-.055.278-0.076c0.158-.038.254-0.056,0.254-0.056s-0.064.068-.186,0.179a2.927,2.927,0,0,1-.545.412,2.73,2.73,0,0,1-.4.219,4.943,4.943,0,0,1-.484.187c-0.175.04-.356,0.1-0.545,0.127a4.726,4.726,0,0,1-.578.047,3.72,3.72,0,0,1-.578-0.04,3.575,3.575,0,0,1-.547-0.117,3.619,3.619,0,0,1-.488-0.178A3.014,3.014,0,0,1,94.23,35.256Zm7.844-2.165a3,3,0,0,1-.051-0.6,3.234,3.234,0,0,0,.061.6Zm0.01,0a3.234,3.234,0,0,1-.061-0.6,4.777,4.777,0,0,1,.081-0.8,0.557,0.557,0,0,0,0-.082,1.243,1.243,0,0,0,.455.082,0.717,0.717,0,0,0,.813-0.476,0.506,0.506,0,0,0-.405-0.41h-0.011a0,0,0,0,1,0,0,1.28,1.28,0,0,0-.4-0.062,1.267,1.267,0,0,0-.256.029,2.926,2.926,0,0,1,1.927-2.018l0.014-.006a1.224,1.224,0,0,1,1.383.28A2.835,2.835,0,0,0,106,28.973a1.061,1.061,0,0,0,.747-0.467,0.887,0.887,0,0,1-.237.428,1.734,1.734,0,0,1-.406.3c-0.082.044-.166,0.084-0.25,0.121a6.438,6.438,0,0,1,.449,1.426l-0.017,0c0.054,0.289.1,0.595,0.143,0.907a5.252,5.252,0,0,1,.058.8,3.3,3.3,0,0,1-.056.574A7.069,7.069,0,0,0,102.084,33.087Zm-11.656-1.4a4.119,4.119,0,0,1,0,1.4,7.056,7.056,0,0,0-4.361-.019,3.918,3.918,0,0,1,.033-1.379,0.475,0.475,0,0,0,0-.082,1.24,1.24,0,0,0,.455.082,0.715,0.715,0,0,0,.812-0.476,0.715,0.715,0,0,0-.812-0.476,1.3,1.3,0,0,0-.354.049,6.831,6.831,0,0,1,.416-1.359,3.091,3.091,0,0,1-.418-0.187,1.722,1.722,0,0,1-.406-0.3,0.878,0.878,0,0,1-.237-0.428,1.06,1.06,0,0,0,.746.467,2.734,2.734,0,0,0,.446.053c0.041,0,.084,0,0.126,0a1.221,1.221,0,0,1,1.388-.286A3.251,3.251,0,0,1,90.428,31.689ZM111.918,0l2.7,5.591L121.2,6.906l-3.422,3.777c-2.378-3.317-8.59-6.707-8.59-6.707Z"/>
</svg>
